Coordinates
version=1
nRows=34
nColumns=38
inDegrees=no

Units are S.I. units (second, meters, Newtons, ...)
If the header above contains a line with 'inDegrees', this indicates whether rotational values are in degrees (yes) or radians (no).

endheader
time	pelvis_tilt	pelvis_list	pelvis_rotation	pelvis_tx	pelvis_ty	pelvis_tz	hip_flexion_r	hip_adduction_r	hip_rotation_r	knee_angle_r	ankle_angle_r	subtalar_angle_r	mtp_angle_r	hip_flexion_l	hip_adduction_l	hip_rotation_l	knee_angle_l	ankle_angle_l	subtalar_angle_l	mtp_angle_l	lumbar_extension	lumbar_bending	lumbar_rotation	arm_flex_r	arm_add_r	arm_rot_r	elbow_flex_r	pro_sup_r	wrist_flex_r	wrist_dev_r	arm_flex_l	arm_add_l	arm_rot_l	elbow_flex_l	pro_sup_l	wrist_flex_l	wrist_dev_l
15	-0.0158206	1.26766	1.54556	0.770935	0.060029	0.867122	0.885172	-0.0270944	0.0633339	1.16907	0.432062	0	0	0.787684	-0.0930761	-0.101617	1.04044	0.498826	0	0	-0.379883	-0.0157942	0.108715	0.32761	-0.275891	0.201083	0.430259	1.3036	0	0	0.376575	-0.290857	0.413792	0.460807	1.18045	0	0
15.01	-0.0110912	1.2669	1.54392	0.771137	0.0593208	0.862567	0.896323	-0.0242837	0.0657356	1.18944	0.44013	0	0	0.800972	-0.0926959	-0.0942792	1.0641	0.508781	0	0	-0.388979	-0.0154547	0.10654	0.335515	-0.275595	0.207225	0.423875	1.29877	0	0	0.382667	-0.292067	0.410006	0.457503	1.16843	0	0
15.02	-0.00819048	1.26659	1.54379	0.771338	0.0586901	0.858115	0.906721	-0.0222866	0.0677419	1.20936	0.448003	0	0	0.813215	-0.0914875	-0.0871321	1.08687	0.518431	0	0	-0.398559	-0.0157261	0.104074	0.343466	-0.274836	0.212166	0.417598	1.29317	0	0	0.388591	-0.293663	0.408154	0.455018	1.15829	0	0
15.03	-0.00690701	1.26646	1.54492	0.771554	0.058128	0.853742	0.916633	-0.0209635	0.0695287	1.22858	0.455783	0	0	0.824665	-0.0899813	-0.0807378	1.10877	0.523599	0	0	-0.408157	-0.0166323	0.101362	0.351166	-0.273448	0.215312	0.411734	1.28777	0	0	0.394326	-0.295546	0.408105	0.453031	1.1506	0	0
15.04	-0.00655346	1.26623	1.54659	0.771799	0.0576157	0.849417	0.926445	-0.0200612	0.0710346	1.24719	0.463322	0	0	0.835644	-0.0883767	-0.0748096	1.12973	0.523599	0	0	-0.417142	-0.0180159	0.0985931	0.358292	-0.271499	0.216546	0.406285	1.28383	0	0	0.400086	-0.297278	0.40916	0.449441	1.14515	0	0
15.05	-0.00679653	1.26569	1.54818	0.772078	0.0571475	0.845142	0.936411	-0.0191881	0.0724718	1.26528	0.470441	0	0	0.846495	-0.0870382	-0.0695533	1.15002	0.523599	0	0	-0.425102	-0.0197703	0.0962447	0.364505	-0.269185	0.216494	0.401248	1.28256	0	0	0.405596	-0.298982	0.411423	0.445302	1.14317	0	0
15.06	-0.00711699	1.26497	1.54907	0.772381	0.0567729	0.840925	0.946385	-0.0181711	0.0736529	1.28308	0.477498	0	0	0.857197	-0.0863484	-0.0652565	1.16994	0.523599	0	0	-0.432249	-0.0217005	0.0945916	0.369526	-0.266774	0.214803	0.397032	1.28386	0	0	0.410607	-0.300372	0.414836	0.440077	1.14289	0	0
15.07	-0.00661324	1.26512	1.54834	0.772699	0.0565191	0.836909	0.954827	-0.0166756	0.0747958	1.29977	0.484533	0	0	0.866216	-0.0864719	-0.0617768	1.18891	0.523599	0	0	-0.439676	-0.023475	0.0938675	0.373526	-0.26473	0.211641	0.394689	1.28631	0	0	0.415171	-0.30117	0.417744	0.434724	1.14315	0	0
15.08	-0.00555414	1.26538	1.54651	0.773055	0.0563686	0.833002	0.962684	-0.0147472	0.0759329	1.31562	0.491388	0	0	0.874564	-0.0871071	-0.0586945	1.2072	0.523599	0	0	-0.446727	-0.0251885	0.0938934	0.376249	-0.262778	0.206843	0.393875	1.29033	0	0	0.418921	-0.301371	0.419246	0.429966	1.14336	0	0
15.09	-0.00366436	1.26548	1.54337	0.77344	0.0562724	0.829187	0.970286	-0.0122294	0.0769867	1.33076	0.497898	0	0	0.882727	-0.0881428	-0.0554831	1.22502	0.523599	0	0	-0.453287	-0.0267188	0.0946979	0.377765	-0.261071	0.200921	0.394706	1.29529	0	0	0.422007	-0.301187	0.41923	0.426341	1.14484	0	0
15.1	-0.000250938	1.26552	1.53879	0.773817	0.0562211	0.825483	0.977503	-0.00950004	0.07755	1.34509	0.504214	0	0	0.890659	-0.0893418	-0.0514798	1.2424	0.523599	0	0	-0.459432	-0.0276745	0.0957893	0.378343	-0.259662	0.193971	0.397326	1.29989	0	0	0.424363	-0.300835	0.417947	0.423907	1.14747	0	0
15.11	0.00470017	1.26529	1.533	0.774165	0.0561715	0.821909	0.984597	-0.0067931	0.0773238	1.35867	0.510028	0	0	0.898485	-0.0906262	-0.0470805	1.25873	0.523599	0	0	-0.465058	-0.0279221	0.0968093	0.378317	-0.25847	0.186623	0.40128	1.30427	0	0	0.426054	-0.300329	0.415529	0.422111	1.15099	0	0
15.12	0.00955673	1.26419	1.5277	0.774436	0.0560877	0.818415	0.992306	-0.00455971	0.0767673	1.37155	0.515253	0	0	0.90699	-0.0915478	-0.0428251	1.27418	0.523599	0	0	-0.46941	-0.0277437	0.0975216	0.377512	-0.257578	0.179288	0.40618	1.30845	0	0	0.426939	-0.29943	0.411804	0.42098	1.15516	0	0
15.13	0.0162811	1.26328	1.52199	0.774623	0.0560952	0.81511	0.999326	-0.00377482	0.0740499	1.38402	0.520562	0	0	0.91509	-0.0918754	-0.0375108	1.28899	0.523599	0	0	-0.473683	-0.0262595	0.0971888	0.37635	-0.257012	0.172847	0.411635	1.31059	0	0	0.427233	-0.298479	0.408357	0.420347	1.15874	0	0
15.14	0.020503	1.26785	1.5262	0.774375	0.0570437	0.811918	0.996131	-0.0127362	0.0643714	1.39527	0.523599	0	0	0.916871	-0.0861662	-0.0298947	1.30451	0.523599	0	0	-0.481812	-0.0230564	0.0898505	0.373496	-0.255073	0.166631	0.416898	1.31216	0	0	0.4265	-0.299154	0.40582	0.420023	1.16376	0	0
15.15	0.0316843	1.26158	1.5107	0.774864	0.0563433	0.808819	1.012	-0.00397468	0.0666364	1.40763	0.523599	0	0	0.930654	-0.0915659	-0.0258771	1.31752	0.523599	0	0	-0.481033	-0.0213191	0.0949255	0.372881	-0.257136	0.169489	0.423219	1.29954	0	0	0.426368	-0.297733	0.411108	0.420396	1.14825	0	0
15.16	0.0379437	1.2642	1.51327	0.774598	0.0571799	0.805824	1.0102	-0.011653	0.0578259	1.41733	0.523599	0	0	0.933854	-0.0854013	-0.0169523	1.33098	0.523599	0	0	-0.486997	-0.0170266	0.0877191	0.370015	-0.255137	0.162525	0.427191	1.30352	0	0	0.425077	-0.298369	0.412194	0.421169	1.15335	0	0
15.17	0.0467125	1.25684	1.50105	0.774958	0.0565156	0.802902	1.02709	-0.00510621	0.0587235	1.42921	0.523599	0	0	0.947946	-0.0891152	-0.0126598	1.34203	0.523599	0	0	-0.484821	-0.015247	0.0919129	0.369985	-0.255929	0.157323	0.429404	1.30813	0	0	0.424957	-0.295349	0.410834	0.4206	1.1683	0	0
15.18	0.0649902	1.26193	1.49141	0.77494	0.0575153	0.800812	1.00364	-0.00503644	0.0508929	1.39911	0.523599	0	0	0.947395	-0.0881722	-0.00412277	1.35394	0.523599	0	0	-0.495071	-0.00764063	0.0871749	0.370388	-0.255185	0.15558	0.429331	1.30962	0	0	0.425939	-0.294817	0.413761	0.420102	1.18176	0	0
15.19	0.0591939	1.25216	1.49311	0.775084	0.0567774	0.797561	1.03992	-0.00529789	0.0535717	1.44665	0.523599	0	0	0.964212	-0.0879931	-0.0029676	1.36478	0.523599	0	0	-0.488153	-0.00985138	0.0891297	0.369968	-0.256128	0.161337	0.429623	1.30402	0	0	0.425524	-0.289616	0.393006	0.413162	1.25128	0	0
15.2	0.0629925	1.24984	1.49156	0.775171	0.0569659	0.79498	1.04601	-0.00596392	0.0517587	1.45439	0.523599	0	0	0.97195	-0.0866384	0.00147675	1.37529	0.523599	0	0	-0.489003	-0.0082441	0.0878711	0.369933	-0.256302	0.166723	0.429071	1.30079	0	0	0.426077	-0.289134	0.397368	0.411663	1.26315	0	0
15.21	0.0638753	1.24718	1.49112	0.775266	0.0570637	0.792512	1.05259	-0.00541946	0.0512428	1.46301	0.523599	0	0	0.979523	-0.0858785	0.00421049	1.38504	0.523599	0	0	-0.489582	-0.00811539	0.0877954	0.370432	-0.256699	0.17272	0.427781	1.29679	0	0	0.427127	-0.288312	0.401458	0.409219	1.26879	0	0
15.22	0.0659267	1.24577	1.489	0.77538	0.0571876	0.790296	1.0576	-0.00415412	0.0508399	1.47099	0.523599	0	0	0.985291	-0.0860617	0.00635322	1.39432	0.523599	0	0	-0.491835	-0.00783905	0.0882965	0.371726	-0.257496	0.180433	0.426748	1.28887	0	0	0.428838	-0.287358	0.405832	0.405672	1.27258	0	0
15.23	0.0689177	1.2453	1.4863	0.77557	0.0574103	0.788249	1.06145	-0.00287157	0.0503642	1.47806	0.523599	0	0	0.989741	-0.0866778	0.00832687	1.40326	0.523599	0	0	-0.495059	-0.00747683	0.0887297	0.373136	-0.258005	0.188093	0.425707	1.27825	0	0	0.430874	-0.287091	0.411472	0.401563	1.27343	0	0
15.24	0.0707277	1.24475	1.48516	0.775739	0.057669	0.786251	1.06534	-0.00207803	0.0505517	1.48442	0.523599	0	0	0.994068	-0.0867749	0.0100445	1.41178	0.523599	0	0	-0.498058	-0.00735284	0.0888172	0.374786	-0.25629	0.181107	0.422126	1.29616	0	0	0.433216	-0.285893	0.407288	0.395928	1.28747	0	0
15.25	0.0711386	1.24342	1.48483	0.775844	0.0578121	0.784293	1.07	-0.00102669	0.05158	1.49073	0.523599	0	0	0.999124	-0.0867288	0.0114247	1.41981	0.523599	0	0	-0.500145	-0.00758061	0.0888805	0.376628	-0.25641	0.185513	0.419383	1.29117	0	0	0.434823	-0.285709	0.406629	0.392287	1.28415	0	0
15.26	0.0706746	1.24298	1.48667	0.776172	0.0573107	0.783322	1.07617	-0.00915418	0.0542849	1.49832	0.523599	0	0	1.00932	-0.0967563	0.0132599	1.43023	0.523599	0	0	-0.505263	-0.00845526	0.0881716	0.380098	-0.256087	0.188886	0.416905	1.28805	0	0	0.438604	-0.285968	0.405395	0.389317	1.28076	0	0
15.27	0.0696103	1.24227	1.48773	0.77627	0.0575375	0.781623	1.07977	-0.00897741	0.0549199	1.50447	0.523599	0	0	1.0132	-0.0962995	0.0141156	1.43717	0.523599	0	0	-0.507542	-0.00928846	0.0875697	0.38207	-0.256088	0.19202	0.414167	1.28539	0	0	0.439743	-0.286501	0.403136	0.386144	1.27768	0	0
15.28	0.0669235	1.24131	1.49137	0.776159	0.0580657	0.779927	1.08366	-0.0103551	0.0552164	1.51065	0.523599	0	0	1.01722	-0.0941595	0.0156279	1.4434	0.523599	0	0	-0.508733	-0.0100629	0.0855725	0.383615	-0.255782	0.195665	0.4114	1.28371	0	0	0.43999	-0.287555	0.40103	0.383446	1.27561	0	0
15.29	0.0608483	1.22788	1.51487	0.774998	0.0569457	0.777449	1.09836	-0.0181423	0.0467292	1.51271	0.523599	0	0	1.0314	-0.0766329	0.00802867	1.43804	0.523599	0	0	-0.498145	-0.00469187	0.0686154	0.385638	-0.252743	0.198235	0.408097	1.28151	0	0	0.442037	-0.29126	0.40053	0.379926	1.27418	0	0
15.3	0.0598403	1.22719	1.51602	0.775075	0.0572319	0.775924	1.10165	-0.0177858	0.0477565	1.51853	0.523599	0	0	1.03462	-0.0761278	0.00868702	1.44417	0.523599	0	0	-0.499467	-0.00524461	0.0672027	0.387474	-0.253328	0.209119	0.406605	1.27522	0	0	0.442346	-0.292823	0.399374	0.376931	1.27359	0	0
15.31	0.0583491	1.22687	1.51801	0.775133	0.0575974	0.774461	1.10441	-0.0180034	0.048665	1.52432	0.523599	0	0	1.03727	-0.0751846	0.00942614	1.45018	0.523599	0	0	-0.501115	-0.00602709	0.0657037	0.38935	-0.251105	0.200823	0.402781	1.3018	0	0	0.443026	-0.294819	0.401032	0.374304	1.27286	0	0
15.32	0.0586759	1.22683	1.51877	0.775127	0.0579865	0.773011	1.10668	-0.0185265	0.04846	1.53021	0.523599	0	0	1.03986	-0.0742463	0.0108079	1.45644	0.523599	0	0	-0.502592	-0.00544582	0.0624927	0.391675	-0.254485	0.237199	0.402566	1.25906	0	0	0.442102	-0.296921	0.398786	0.371709	1.27298	0	0
15.33	0.0575378	1.22719	1.52171	0.775221	0.0578559	0.77258	1.11168	-0.027954	0.0515067	1.53657	0.523599	0	0	1.04882	-0.0838038	0.0122333	1.465	0.523599	0	0	-0.507048	-0.00585908	0.0598288	0.395676	-0.254291	0.247774	0.399661	1.25432	0	0	0.444386	-0.298647	0.398385	0.369464	1.27157	0	0
